<?xml version="1.0" encoding="utf-8"?>
<!-- Generator: Adobe Illustrator 22.0.0, SVG Export Plug-In . SVG Version: 6.00 Build 0)  -->
<svg version="1.1" id="圖層_1" xmlns="http://www.w3.org/2000/svg" xmlns:xlink="http://www.w3.org/1999/xlink" x="0px" y="0px"
	 viewBox="0 0 500 500" style="enable-background:new 0 0 500 500;" xml:space="preserve">
<path d="M423.3,91c-31.9-14.6-66-25.4-101.8-31.6c-0.7-0.1-1.3,0.2-1.6,0.8c-4.4,7.8-9.3,18-12.7,26c-38.4-5.8-76.7-5.8-114.3,0
	c-3.4-8.2-8.5-18.2-12.9-26c-0.3-0.6-1-0.9-1.6-0.8C142.7,65.6,108.5,76.4,76.6,91c-0.3,0.1-0.5,0.3-0.7,0.6
	C11.1,188.5-6.6,282.9,2.1,376.2c0,0.5,0.3,0.9,0.7,1.2c42.8,31.4,84.2,50.5,124.9,63.1c0.7,0.2,1.3,0,1.8-0.6
	c9.6-13.1,18.2-27,25.5-41.5c0.4-0.9,0-1.9-0.9-2.2c-13.6-5.2-26.5-11.4-39-18.6c-1-0.6-1.1-2-0.2-2.7c2.6-2,5.2-4,7.7-6.1
	c0.5-0.4,1.1-0.5,1.6-0.2c81.8,37.4,170.4,37.4,251.3,0c0.5-0.3,1.2-0.2,1.6,0.2c2.5,2.1,5.1,4.1,7.8,6.1c0.9,0.7,0.8,2.1-0.1,2.7
	c-12.5,7.3-25.4,13.4-39,18.6c-0.9,0.3-1.3,1.4-0.8,2.2c7.5,14.5,16.1,28.4,25.5,41.5c0.4,0.6,1.1,0.8,1.8,0.6
	c40.9-12.6,82.3-31.7,125-63.1c0.4-0.3,0.6-0.7,0.7-1.2c10.4-107.9-17.5-201.5-73.9-284.6C423.8,91.4,423.5,91.2,423.3,91z
	 M167.1,319.4c-24.6,0-44.9-22.6-44.9-50.4s19.9-50.4,44.9-50.4c25.2,0,45.3,22.8,44.9,50.4C212,296.8,192.1,319.4,167.1,319.4z
	 M333.2,319.4c-24.6,0-44.9-22.6-44.9-50.4s19.9-50.4,44.9-50.4c25.2,0,45.3,22.8,44.9,50.4C378.2,296.8,358.5,319.4,333.2,319.4z"
	/>
</svg>
