<?xml version="1.0" encoding="utf-8"?>
<!-- Generator: Adobe Illustrator 22.0.0, SVG Export Plug-In . SVG Version: 6.00 Build 0)  -->
<svg version="1.1" id="圖層_1" xmlns="http://www.w3.org/2000/svg" xmlns:xlink="http://www.w3.org/1999/xlink" x="0px" y="0px"
	 viewBox="0 0 500 500" style="enable-background:new 0 0 500 500;" xml:space="preserve">
<path d="M458.3,83.3h-41.7h-62.5V20.8c0-11.5-9.3-20.8-20.8-20.8H166.7c-11.5,0-20.8,9.3-20.8,20.8v62.5H83.3H41.7
	c-11.5,0-20.8,9.3-20.8,20.8S30.1,125,41.7,125h20.8v312.5c0,34.5,28,62.5,62.5,62.5h250c34.5,0,62.5-28,62.5-62.5V125h20.8
	c11.5,0,20.8-9.3,20.8-20.8S469.9,83.3,458.3,83.3z M187.5,41.7h125v41.7h-125V41.7z M395.8,437.5c0,11.5-9.3,20.8-20.8,20.8H125
	c-11.5,0-20.8-9.4-20.8-20.8V125h62.5h166.7h62.5L395.8,437.5L395.8,437.5z M187.5,166.7c-11.5,0-20.8,9.3-20.8,20.8V375
	c0,11.5,9.3,20.8,20.8,20.8c11.5,0,20.8-9.3,20.8-20.8V187.5C208.3,176,199,166.7,187.5,166.7z M312.5,166.7
	c-11.5,0-20.8,9.3-20.8,20.8V375c0,11.5,9.3,20.8,20.8,20.8s20.8-9.3,20.8-20.8V187.5C333.3,176,324,166.7,312.5,166.7z"/>
</svg>
