<?xml version="1.0" encoding="utf-8"?>
<!-- Generator: Adobe Illustrator 22.0.0, SVG Export Plug-In . SVG Version: 6.00 Build 0)  -->
<svg version="1.1" id="圖層_1" xmlns="http://www.w3.org/2000/svg" xmlns:xlink="http://www.w3.org/1999/xlink" x="0px" y="0px"
	 viewBox="0 0 500 500" style="enable-background:new 0 0 500 500;" xml:space="preserve">
<g>
	<g>
		<path d="M493.9,464.4L351.7,322.3c27.5-34,44.1-77.3,44.1-124.3C395.8,88.8,307,0,197.9,0S0,88.8,0,197.9s88.8,197.9,197.9,197.9
			c47.1,0,90.3-16.6,124.3-44.1l142.2,142.2c4.1,4.1,9.4,6.1,14.7,6.1c5.3,0,10.7-2,14.7-6.1C502,485.8,502,472.6,493.9,464.4z
			 M197.9,354.2c-86.2,0-156.3-70.1-156.3-156.2S111.7,41.7,197.9,41.7s156.3,70.1,156.3,156.3S284.1,354.2,197.9,354.2z"/>
	</g>
</g>
</svg>
