<?xml version="1.0" encoding="utf-8"?>
<!-- Generator: Adobe Illustrator 22.0.0, SVG Export Plug-In . SVG Version: 6.00 Build 0)  -->
<svg version="1.1" id="圖層_1" xmlns="http://www.w3.org/2000/svg" xmlns:xlink="http://www.w3.org/1999/xlink" x="0px" y="0px"
	 viewBox="0 0 500 500" style="enable-background:new 0 0 500 500;" xml:space="preserve">
<path id="路径_7" d="M337.9,117.2h94L323.2,8.6v94C323.2,110.6,329.8,117.2,337.9,117.2z M103.5,500h293c24.3,0,43.9-19.7,44-44
	V146.5H337.9c-24.3,0-43.9-19.7-44-43.9V0H103.5c-24.3,0-43.9,19.7-44,44V456C59.6,480.3,79.3,500,103.5,500z M191.4,235.3h146.5
	c8.1-0.3,14.9,6.1,15.1,14.2c0.3,8.1-6.1,14.9-14.2,15.1c-0.3,0-0.6,0-1,0H191.4c-8.1-0.3-14.4-7-14.2-15.1
	C177.5,241.8,183.7,235.6,191.4,235.3z M191.4,293.9h146.5c8.1-0.3,14.9,6.1,15.1,14.2c0.3,8.1-6.1,14.9-14.2,15.1c-0.3,0-0.6,0-1,0
	H191.4c-8.1-0.3-14.4-7-14.2-15.1C177.5,300.4,183.7,294.2,191.4,293.9z M191.4,352.5h146.5c8.1-0.3,14.9,6.1,15.1,14.2
	c0.3,8.1-6.1,14.9-14.2,15.1c-0.3,0-0.6,0-1,0H191.4c-8.1-0.3-14.4-7-14.2-15.1C177.5,359,183.7,352.8,191.4,352.5z M132.8,235.3
	c8.1,0,14.7,6.6,14.7,14.7c0,8.1-6.6,14.7-14.7,14.7s-14.7-6.6-14.7-14.7C118.2,241.9,124.7,235.3,132.8,235.3L132.8,235.3z
	 M132.8,293.9c8.1,0,14.7,6.6,14.7,14.7s-6.6,14.7-14.7,14.7s-14.7-6.6-14.7-14.7C118.2,300.5,124.7,294,132.8,293.9L132.8,293.9z
	 M132.8,352.5c8.1,0,14.7,6.6,14.7,14.7s-6.6,14.7-14.7,14.7s-14.7-6.6-14.7-14.7C118.2,359.1,124.7,352.5,132.8,352.5L132.8,352.5z
	"/>
</svg>
