<?xml version="1.0" encoding="utf-8"?>
<!-- Generator: Adobe Illustrator 22.0.0, SVG Export Plug-In . SVG Version: 6.00 Build 0)  -->
<svg version="1.1" id="圖層_1" xmlns="http://www.w3.org/2000/svg" xmlns:xlink="http://www.w3.org/1999/xlink" x="0px" y="0px"
	 viewBox="0 0 500 500" style="enable-background:new 0 0 500 500;" xml:space="preserve">
<path d="M161.7,205.6c-23.4-23.4-35.3-52.1-35.3-85.2c0-33.1,11.9-61.7,35.3-85.1C185.1,11.9,213.8,0,246.8,0
	c33.1,0,61.7,11.9,85.1,35.3c23.4,23.4,35.3,52.1,35.3,85.1c0,33.1-11.9,61.7-35.3,85.1c-23.4,23.4-52.1,35.3-85.2,35.3
	C213.8,240.9,185.1,229,161.7,205.6z M457.6,384.5c-0.7-9.7-2-20.4-4.1-31.6c-2-11.3-4.6-22-7.8-31.8c-3.2-10.1-7.6-20.1-13.1-29.6
	c-5.6-9.9-12.3-18.6-19.7-25.7c-7.8-7.4-17.3-13.4-28.3-17.8c-11-4.3-23.1-6.5-36.1-6.5c-5.1,0-10,2.1-19.6,8.3
	c-5.9,3.8-12.7,8.3-20.4,13.1c-6.5,4.2-15.4,8.1-26.4,11.6c-10.7,3.5-21.5,5.2-32.3,5.2c-10.7,0-21.6-1.8-32.3-5.2
	c-10.9-3.5-19.8-7.4-26.4-11.6c-7.6-4.8-14.5-9.3-20.4-13.2c-9.5-6.2-14.5-8.3-19.6-8.3c-13,0-25.1,2.2-36.1,6.5
	c-11,4.4-20.5,10.3-28.3,17.8c-7.4,7.1-14.1,15.7-19.7,25.7c-5.4,9.6-9.8,19.5-13.1,29.6c-3.1,9.8-5.7,20.5-7.8,31.8
	c-2,11.2-3.4,21.8-4.1,31.6c-0.7,9.5-1,19.5-1,29.5c0,26.1,8.3,47.2,24.7,62.8c16.2,15.4,37.5,23.2,63.5,23.2h240.8
	c26,0,47.4-7.8,63.5-23.2c16.4-15.6,24.7-36.7,24.7-62.8C458.6,403.9,458.2,394,457.6,384.5z"/>
</svg>
