<?xml version="1.0" encoding="utf-8"?>
<!-- Generator: Adobe Illustrator 22.0.0, SVG Export Plug-In . SVG Version: 6.00 Build 0)  -->
<svg version="1.1" id="圖層_1" xmlns="http://www.w3.org/2000/svg" xmlns:xlink="http://www.w3.org/1999/xlink" x="0px" y="0px"
	 viewBox="0 0 500 500" style="enable-background:new 0 0 500 500;" xml:space="preserve">
<path d="M319.3,250l116.3-116.3c9.3-9.3,14.4-21.6,14.4-34.7c0-13.1-5.1-25.4-14.4-34.7C426.4,55.1,414.1,50,401,50
	c-13.1,0-25.4,5.1-34.7,14.4L250,180.7L133.7,64.4c-19.1-19.1-50.2-19.1-69.3,0C55.1,73.6,50,85.9,50,99c0,13.1,5.1,25.4,14.4,34.7
	L180.7,250L64.4,366.3C55.1,375.6,50,387.9,50,401s5.1,25.4,14.4,34.6C73.6,444.9,85.9,450,99,450c13.1,0,25.4-5.1,34.7-14.4
	L250,319.3l116.3,116.3c9.3,9.3,21.6,14.4,34.6,14.4c13.1,0,25.4-5.1,34.6-14.4c9.3-9.3,14.4-21.6,14.4-34.7
	c0-13.1-5.1-25.4-14.4-34.7L319.3,250z"/>
</svg>
