<svg xmlns="http://www.w3.org/2000/svg" width="160" height="64.544" viewBox="0 0 160 64.544">
  <path id="路径_3" data-name="路径 3" d="M125.532,261.776l.081,4.326h-1.172l-1.032-3.537H120.6c-.039,2.081-.039,4.184-.039,6.328v.869c0,2.06,0,4.163.039,6.226l2.063.2v.688h-7.6v-.688l2.041-.2c.041-2.021.041-4.1.041-6.206v-.888c0-2.124,0-4.247-.041-6.328h-2.79L113.3,266.1h-1.193l.081-4.326Zm23.486,7.541c0,5.255-3.336,7.965-7.156,7.965-3.8,0-7.178-2.689-7.178-7.965,0-5.217,3.4-7.945,7.178-7.945C145.662,261.372,149.018,264.081,149.018,269.317Zm-3.558,0c0-4.125-1.133-7.178-3.6-7.178-2.487,0-3.6,3.053-3.6,7.178,0,4.164,1.112,7.2,3.6,7.2C144.328,276.513,145.46,273.481,145.46,269.317Zm19.947-1.416-1.072-.484c-1.415-.647-2.184-1.4-2.184-2.79,0-1.517,1.133-2.406,2.891-2.406a3.062,3.062,0,0,1,1.314.241l1.032,3.357h1.173l.181-3.3a7.463,7.463,0,0,0-4.1-1.152c-3.3,0-5.5,1.557-5.5,4.286,0,2.425,1.436,3.78,4.145,4.992l.97.425c1.618.707,2.2,1.436,2.2,2.81,0,1.578-1.113,2.528-3.114,2.528a5.52,5.52,0,0,1-1.98-.3l-1.072-3.519h-1.172l-.142,3.478a9.181,9.181,0,0,0,4.71,1.213c3.8,0,5.843-1.839,5.843-4.528C169.531,270.469,168.419,269.255,165.407,267.9ZM105.1,237.843l-.09.627c-2.156,1.3-3.548,2.831-3.773,4.85a20.108,20.108,0,0,1-6.557-4.806h-.09v14.776c-.045.4-2.785,1.482-4.625,1.482h-.988v-2.829H77.706v1.392c0,.4-1.662,1.615-4.446,1.615H72.228V238.606a37.369,37.369,0,0,1-9.836,5.569l-.359-.4a34.345,34.345,0,0,0,11.227-11.9h-10.1l-.359-1.3H73.98A43.664,43.664,0,0,0,76,225.851H66.928l-.314-1.3h9.834c.494-1.481.9-3.008,1.258-4.535H65.087l-.359-1.3H77.975a58.3,58.3,0,0,0,.9-5.973l7.635,1.3c-.135.674-.674,1.123-1.752,1.123-.225,1.213-.449,2.38-.764,3.548H94.5l2.874-3.593s3.189,2.425,5.21,4.175c-.135.5-.629.72-1.3.72h-17.6a33.118,33.118,0,0,1-1.437,4.535h9.926l2.693-3.367s3.054,2.334,4.9,3.951c-.135.494-.584.719-1.213.719h-16.8a38.867,38.867,0,0,1-2.425,4.716H95.984l3.009-3.728s3.368,2.515,5.389,4.312c-.09.494-.584.719-1.258.719H91.672C94.637,235.462,100.3,237.259,105.1,237.843ZM88.979,244.8H77.706v5.884H88.979Zm0-6.78H77.706V243.5H88.979Zm3.053-3.01a29.564,29.564,0,0,1-1.617-3.142H78.469a27.451,27.451,0,0,1-3.1,3.818l2.919,1.076H88.663l2.38-2.515Zm44.839-5.681a6.879,6.879,0,0,1,2.8,4.007c2.863,1.684,4.884-3.975-2.494-4.278Zm.606,17.381a29.372,29.372,0,0,0-5.8-3c-2.526,1.314-6.232,2.425-11.722,3.336l-.236-.574a33.376,33.376,0,0,0,9.263-3.773,55.919,55.919,0,0,0-6.265-1.718h-.034a36.956,36.956,0,0,0,1.886-3.2H120.5l-.269-.977h4.851a45.445,45.445,0,0,0,2.088-4.549l4.65,1.482c-.136.372-.473.675-1.483.573-.337.707-.775,1.583-1.246,2.494h4.177a18.838,18.838,0,0,0,.371-2.863,14.075,14.075,0,0,1-1.853,1.28l-.4-.4a18.412,18.412,0,0,0,2.627-5.255,4.1,4.1,0,0,1-1.112.167h-.473V216.022l3.1,1.28h2.56l1.482-1.651,3.267,2.459a2.291,2.291,0,0,1-1.381.64v9.4a4.5,4.5,0,0,1-2.526.842h-.505v-.741h-3.033v.539c0,.1-.168.236-.438.4l2.831,1.484c-.168.335-.438.5-1.213.369a16.532,16.532,0,0,1-2.526,2.6l4.615.371c-.067.437-.4.808-1.179.876-.1.672-.2,1.312-.337,1.92h1.044l1.752-2.124s2.021,1.484,3.267,2.56c-.1.372-.438.54-.909.54h-5.423a8.01,8.01,0,0,1-2.459,4.042C144.416,244.252,140.475,248.161,137.477,246.711Zm-2.09-26.039h3.033V218.28h-3.033Zm0,3.3h3.033v-2.358h-3.033Zm0,3.3h3.033v-2.358h-3.033Zm-2.358,10.511h-4.446c-.573,1.044-1.145,2.055-1.651,2.9,1.448.136,2.8.3,3.975.507A8.231,8.231,0,0,0,133.029,237.785Zm-17.989-4.044a27.51,27.51,0,0,1-3.672,5.29l-.438-.4c1.92-3.874,3.065-9.029,3.672-13.913h-3.166l-.269-.977h3.874v-8.422l4.717.472c-.069.472-.337.808-1.246.943V223.1l1.144-1.752s1.347,1.314,2.359,2.425V215.99l3.1,1.28h2.695l1.448-1.585,3.133,2.392a2.163,2.163,0,0,1-1.28.608v9.465a4.568,4.568,0,0,1-2.493.808h-.505v-.707h-3.133v.505c0,.1-.135.236-.371.371l2.863,1.482c-.2.337-.505.539-1.213.4A20.533,20.533,0,0,1,120.9,235.7l-.371-.439a22.254,22.254,0,0,0,3.032-5.726,4.034,4.034,0,0,1-1.112.168h-.438v-5.086a1.125,1.125,0,0,1-.505.1h-3v2.122c5.861,3.032,3.3,7.309,1.178,5.322a13.2,13.2,0,0,0-1.178-4.177V245.7c0,.4-1.484,1.28-2.8,1.28h-.674Zm9.938-13.069h3.133v-2.427h-3.133Zm0,3.3h3.133v-2.358h-3.133Zm0,3.3h3.133v-2.358h-3.133Zm1.886,2.122a6.014,6.014,0,0,1,2.324,3.234c2.8,1.551,4.749-3.739-2.055-3.5Zm39.294,19.011c.157-1.572.988-3.076,2.425-3.413v-.225c-2.246.157-4.088.2-6.38.2-5.166,0-7.705-.4-9.165-1.684l-.135-.09a24.453,24.453,0,0,0,12.738-8.671c.584-.045.808-.136.966-.383l-2.876-2.629-1.91,1.731H148.367l.2.629H161.8a28,28,0,0,1-9.571,9.076h-.156a50.521,50.521,0,0,0-5.1,1.909l2.359,3.888a.5.5,0,0,0,.314-.518c.764-1.482,1.752-3.121,2.156-3.909.314-.517.585-.606.9-.021,1.594,2.874,3.211,4.109,8.2,4.109Zm-11.952-20.8-.157.112a10.1,10.1,0,0,1,2.067,4.493C159.262,234.48,162.071,228.391,154.207,227.6Zm37.1,11.182c-2.38,1.931-5.839,4.581-10.463,7.724a1.951,1.951,0,0,1-1.123,1.3l-2.74-5.973c1.078-.225,2.829-.719,4.94-1.3V226.884h-4l-.359-1.258h4.357V213.681l6.6.584c-.09.627-.449,1.078-1.66,1.258v10.014l2.109-3.5s1.392,1.439,2.65,2.874v-4.626L197.2,222.3h8.262q-.135-4.312-.133-8.893l6.511.674a.957.957,0,0,1-.314.719c7.321.135,7.231,4.31,5.03,5.389.988.763,2.291,1.84,3.234,2.695-.135.448-.584.672-1.213.672h-8.354a77.539,77.539,0,0,0,1.168,11.992,65.922,65.922,0,0,0,2.38-8.174l5.973,2.021c-.225.584-.674.853-1.841.81a50.468,50.468,0,0,1-4.9,11.18,22.272,22.272,0,0,0,2.874,5.434c.494.763.719.719,1.168-.09.584-1.123,1.572-3.279,2.291-5.165l.494.091-.988,7.634c1.213,2.829,1.482,4.446.629,5.03-2.291,1.571-5.524-.808-6.917-2.874a30.476,30.476,0,0,1-2.919-5.479,33.8,33.8,0,0,1-12.17,8.577l-.4-.672A34.074,34.074,0,0,0,208.287,242.2a76.376,76.376,0,0,1-2.74-18.639h-9.116v6.917h3.144l2.334-2.291,4.222,3.458a2.638,2.638,0,0,1-1.707.808c-.18,8.712-.448,12.665-2.2,14.146a6.462,6.462,0,0,1-4,1.123,4.272,4.272,0,0,0-.584-2.515,5.323,5.323,0,0,0-2.74-1.527v-.4a20.736,20.736,0,0,1-9.789,11.587l-.451-.449C189.067,249.788,190.728,244.309,191.312,238.786ZM210.173,222.3H212.6l1.662-2.111a1.523,1.523,0,0,1-.539-.271,11.563,11.563,0,0,0-2.785-4.714c-.225.045-.449.09-.719.135C210.173,217.633,210.128,219.969,210.173,222.3ZM194.949,243.1c1.168.091,2.74.18,3.324.18a.784.784,0,0,0,.719-.314c.629-.808.853-4.131.988-11.182h-3.548v.314A34.622,34.622,0,0,1,194.949,243.1Zm-3.5-5.433c.135-1.888.18-3.728.18-5.569v-5.21h-4.759v12.17C188.347,238.606,189.874,238.157,191.446,237.663Zm-6.938,30.794v2.807H221v-2.807ZM61,271.264H97.491v-2.807H61Z" transform="translate(-61 -212.738)" fill="#fff"/>
</svg>
